<svg xmlns="http://www.w3.org/2000/svg" viewBox="0 0 64 64" fill="none">
  <!-- Background circle -->
  <circle cx="32" cy="32" r="32" fill="#000000"/>
  
  <!-- Shield outline -->
  <path d="M32 12L20 18V28C20 36 24 42 32 48C40 42 44 36 44 28V18L32 12Z" 
        stroke="#FFFFFF" 
        stroke-width="2.5" 
        fill="none"
        stroke-linejoin="round"/>
  
  <!-- Inner shield detail -->
  <path d="M32 16L24 20V28C24 34 27 39 32 43C37 39 40 34 40 28V20L32 16Z" 
        fill="#FFFFFF" 
        opacity="0.15"/>
  
  <!-- Lock symbol in center -->
  <rect x="28" y="28" width="8" height="8" rx="1" 
        fill="#FFFFFF"/>
  
  <!-- Lock top arc -->
  <path d="M29 28V25C29 23.3 30.3 22 32 22C33.7 22 35 23.3 35 25V28" 
        stroke="#FFFFFF" 
        stroke-width="2" 
        fill="none"
        stroke-linecap="round"/>
  
  <!-- Small dot for keyhole -->
  <circle cx="32" cy="32" r="1.5" fill="#000000"/>
</svg>

